<?xml version="1.0" encoding="us-ascii" standalone="no"?><svg xmlns="http://www.w3.org/2000/svg" xmlns:xlink="http://www.w3.org/1999/xlink" contentStyleType="text/css" height="673px" preserveAspectRatio="none" style="width:445px;height:673px;background:#FFFFFF;" version="1.1" viewBox="0 0 445 673" width="445px" zoomAndPan="magnify"><defs/><g><text fill="#000000" font-family="sans-serif" font-size="14" font-weight="bold" lengthAdjust="spacing" textLength="80" x="175.65" y="23.5352">Accounting</text><!--cluster Platform--><g id="cluster_Platform"><rect fill="none" height="620" rx="2.5" ry="2.5" style="stroke:#181818;stroke-width:1.0;" width="344.3" x="95" y="44.4883"/><text fill="#000000" font-family="sans-serif" font-size="14" font-weight="bold" lengthAdjust="spacing" textLength="63" x="235.65" y="60.0234">Platform</text></g><g id="elem_v"><ellipse cx="267.154" cy="99.4851" fill="#F1F1F1" rx="86.834" ry="19.7668" style="stroke:#181818;stroke-width:0.5;"/><text fill="#000000" font-family="sans-serif" font-size="14" lengthAdjust="spacing" textLength="134" x="200.154" y="102.7761">Validate an account</text></g><g id="elem_c"><ellipse cx="267.1482" cy="629.4919" fill="#F1F1F1" rx="82.5182" ry="18.9036" style="stroke:#181818;stroke-width:0.5;"/><text fill="#000000" font-family="sans-serif" font-size="14" lengthAdjust="spacing" textLength="124" x="205.1482" y="632.7829">Create an account</text></g><g id="elem_p1"><ellipse cx="267.1521" cy="180.4907" fill="#F1F1F1" rx="121.1121" ry="26.6224" style="stroke:#181818;stroke-width:0.5;"/><text fill="#000000" font-family="sans-serif" font-size="14" font-style="italic" lengthAdjust="spacing" textLength="76" x="224.0774" y="171.4835">&#171;Profile#1&#187;</text><text fill="#000000" font-family="sans-serif" font-size="14" lengthAdjust="spacing" textLength="199" x="162.5774" y="187.9718">Access to only public content</text></g><g id="elem_p2"><ellipse cx="267.1515" cy="275.4886" fill="#F1F1F1" rx="156.1515" ry="33.6303" style="stroke:#181818;stroke-width:0.5;"/><text fill="#000000" font-family="sans-serif" font-size="14" font-style="italic" lengthAdjust="spacing" textLength="76" x="229.1515" y="262.2913">&#171;Profile#2&#187;</text><text fill="#000000" font-family="sans-serif" font-size="14" lengthAdjust="spacing" textLength="283" x="125.6515" y="278.7796">Dataset management and public scenario</text></g><g id="elem_p3"><ellipse cx="267.1471" cy="369.4917" fill="#F1F1F1" rx="116.0671" ry="25.6134" style="stroke:#181818;stroke-width:0.5;"/><text fill="#000000" font-family="sans-serif" font-size="14" font-style="italic" lengthAdjust="spacing" textLength="76" x="223.6411" y="361.6076">&#171;Profile#3&#187;</text><text fill="#000000" font-family="sans-serif" font-size="14" lengthAdjust="spacing" textLength="180" x="171.6411" y="378.0959">Data sharing and analytics</text></g><g id="elem_p4"><ellipse cx="267.1469" cy="459.4837" fill="#F1F1F1" rx="137.0269" ry="29.8054" style="stroke:#181818;stroke-width:0.5;"/><text fill="#000000" font-family="sans-serif" font-size="14" font-style="italic" lengthAdjust="spacing" textLength="76" x="228.2876" y="446.818">&#171;Profile#4&#187;</text><text fill="#000000" font-family="sans-serif" font-size="14" lengthAdjust="spacing" textLength="243" x="144.7876" y="463.3062">Scenario, algorithms and indicators</text></g><g id="elem_p5"><ellipse cx="267.1487" cy="549.492" fill="#F1F1F1" rx="116.3187" ry="25.6637" style="stroke:#181818;stroke-width:0.5;"/><text fill="#000000" font-family="sans-serif" font-size="14" font-style="italic" lengthAdjust="spacing" textLength="76" x="223.6671" y="541.5514">&#171;Profile#5&#187;</text><text fill="#000000" font-family="sans-serif" font-size="14" lengthAdjust="spacing" textLength="181" x="171.1671" y="558.0397">Creation of meta-scenario</text></g><!--entity a--><g id="elem_a"><ellipse cx="28.5" cy="69.7483" fill="#F1F1F1" rx="8" ry="8" style="stroke:#181818;stroke-width:0.5;"/><path d="M28.5,77.7483 L28.5,104.7483 M15.5,85.7483 L41.5,85.7483 M28.5,104.7483 L15.5,119.7483 M28.5,104.7483 L41.5,119.7483 " fill="none" style="stroke:#181818;stroke-width:0.5;"/><text fill="#000000" font-family="sans-serif" font-size="14" lengthAdjust="spacing" textLength="45" x="6" y="134.7834">Admin</text></g><!--entity u--><g id="elem_u"><ellipse cx="28.5" cy="599.7483" fill="#F1F1F1" rx="8" ry="8" style="stroke:#181818;stroke-width:0.5;"/><path d="M28.5,607.7483 L28.5,634.7483 M15.5,615.7483 L41.5,615.7483 M28.5,634.7483 L15.5,649.7483 M28.5,634.7483 L41.5,649.7483 " fill="none" style="stroke:#181818;stroke-width:0.5;"/><text fill="#000000" font-family="sans-serif" font-size="14" lengthAdjust="spacing" textLength="31" x="13" y="664.7834">User</text></g><!--link u to c--><g id="link_u_c"><path d="M44.3,629.4883 C71.93,629.4883 127.17,629.4883 178.32,629.4883 " fill="none" id="u-to-c" style="stroke:#181818;stroke-width:1.0;"/><polygon fill="#181818" points="184.32,629.4883,175.32,625.4883,179.32,629.4883,175.32,633.4883,184.32,629.4883" style="stroke:#181818;stroke-width:1.0;"/></g><!--link a to v--><g id="link_a_v"><path d="M51.34,99.4883 C80.46,99.4883 127.71,99.4883 173.9,99.4883 " fill="none" id="a-to-v" style="stroke:#181818;stroke-width:1.0;"/><polygon fill="#181818" points="179.9,99.4883,170.9,95.4883,174.9,99.4883,170.9,103.4883,179.9,99.4883" style="stroke:#181818;stroke-width:1.0;"/></g><!--link p1 to c--><g id="link_p1_c"><path d="M147.47,185.1983 C113.69,193.5283 82.46,210.1383 69,241.9883 C54.6,276.0683 54.6,540.9083 69,574.9883 C87.47,618.6983 122.2542,630.7654 168.6942,633.1754 " fill="none" id="p1-to-c" style="stroke:#181818;stroke-width:1.0;"/><polygon fill="none" points="186.67,634.1083,169.0051,627.1835,168.3832,639.1674,186.67,634.1083" style="stroke:#181818;stroke-width:1.0;"/></g><!--link p2 to c--><g id="link_p2_c"><path d="M128.25,291.1583 C102.32,301.5783 79.94,318.0883 69,343.9883 C49.02,391.2783 49.02,527.6983 69,574.9883 C87.47,618.6983 122.2542,630.7654 168.6942,633.1754 " fill="none" id="p2-to-c" style="stroke:#181818;stroke-width:1.0;"/><polygon fill="none" points="186.67,634.1083,169.0051,627.1835,168.3832,639.1674,186.67,634.1083" style="stroke:#181818;stroke-width:1.0;"/></g><!--link p3 to c--><g id="link_p3_c"><path d="M168.26,383.1183 C140.83,389.5083 111.79,398.8483 87,412.4883 C77.22,417.8683 73.34,419.7083 69,429.9883 C56.46,459.6683 56.46,545.3083 69,574.9883 C87.47,618.6983 122.2542,630.7654 168.6942,633.1754 " fill="none" id="p3-to-c" style="stroke:#181818;stroke-width:1.0;"/><polygon fill="none" points="186.67,634.1083,169.0051,627.1835,168.3832,639.1674,186.67,634.1083" style="stroke:#181818;stroke-width:1.0;"/></g><!--link p4 to c--><g id="link_p4_c"><path d="M158.84,478.0983 C134.27,484.9083 108.96,494.1083 87,506.4883 C59.58,521.9483 56.75,545.9883 69,574.9883 C87.47,618.6983 122.2542,630.7654 168.6942,633.1754 " fill="none" id="p4-to-c" style="stroke:#181818;stroke-width:1.0;"/><polygon fill="none" points="186.67,634.1083,169.0051,627.1835,168.3832,639.1674,186.67,634.1083" style="stroke:#181818;stroke-width:1.0;"/></g><!--link p5 to c--><g id="link_p5_c"><path d="M267.15,575.5383 C267.15,587.0583 267.15,580.5883 267.15,592.1083 " fill="none" id="p5-to-c" style="stroke:#181818;stroke-width:1.0;"/><polygon fill="none" points="267.15,610.1083,273.15,592.1083,261.15,592.1083,267.15,610.1083" style="stroke:#181818;stroke-width:1.0;"/></g><!--SRC=[RP3FQiCm3CRlUWh1BXaiXxJfhHHAzm25iTqrHqa5_XDifL2slVkSn8CEUl67vE_tIRQAMiQZCM7oAdu0oxsY1emoN1GxYMnKWeTPoG_PVBQaVOWElw3w82iTAIDvf3Na6IdX5QfJv0SN1geyZ5EQPmHlRpXEdrOCck2LPzD-VuwX5yjFpU4m8sC3rIif9LPqv6bWbuqvkFjZas5FKS8zl2dmPeKnNRB33mkMG-nDnQHxO5k0BLHl9Uy5oGuXYbvSMa3ndHZI4F-HRI7RykZyNHXwTAnKFrfjL_mxW1yWa-Fms3dnSvDAuprndEi9fhe-6A1yNc5iwkzSZ9jLjgkqg-mM-GK0]--></g></svg>