<?xml version="1.0" encoding="us-ascii" standalone="no"?><svg xmlns="http://www.w3.org/2000/svg" xmlns:xlink="http://www.w3.org/1999/xlink" contentStyleType="text/css" height="312px" preserveAspectRatio="none" style="width:921px;height:312px;background:#FFFFFF;" version="1.1" viewBox="0 0 921 312" width="921px" zoomAndPan="magnify"><defs/><g><text fill="#000000" font-family="sans-serif" font-size="14" font-weight="bold" lengthAdjust="spacing" textLength="133" x="387" y="23.5352">Uploading Dataset</text><!--cluster Local--><g id="cluster_Local"><rect fill="none" height="91.23" rx="2.5" ry="2.5" style="stroke:#181818;stroke-width:1.0;" width="396" x="85" y="144.4783"/><text fill="#000000" font-family="sans-serif" font-size="14" font-weight="bold" lengthAdjust="spacing" textLength="37" x="264.5" y="160.0134">Local</text></g><!--cluster Platform--><g id="cluster_Platform"><rect fill="none" height="87.11" rx="2.5" ry="2.5" style="stroke:#181818;stroke-width:1.0;" width="314" x="505" y="146.5383"/><text fill="#000000" font-family="sans-serif" font-size="14" font-weight="bold" lengthAdjust="spacing" textLength="63" x="630.5" y="162.0734">Platform</text></g><g id="elem_pd"><ellipse cx="176.9952" cy="199.5873" fill="#F1F1F1" rx="75.7952" ry="17.559" style="stroke:#181818;stroke-width:0.5;"/><text fill="#000000" font-family="sans-serif" font-size="14" lengthAdjust="spacing" textLength="108" x="122.9952" y="202.8783">prepare dataset</text></g><g id="elem_wmd"><ellipse cx="376.0012" cy="199.5845" fill="#F1F1F1" rx="88.5812" ry="20.1162" style="stroke:#181818;stroke-width:0.5;"/><text fill="#000000" font-family="sans-serif" font-size="14" lengthAdjust="spacing" textLength="138" x="307.0012" y="202.8755">write metadata docs</text></g><g id="elem_u"><ellipse cx="757.9972" cy="199.593" fill="#F1F1F1" rx="45.4472" ry="14.6647" style="stroke:#181818;stroke-width:0.5;"/><text fill="#000000" font-family="sans-serif" font-size="14" lengthAdjust="spacing" textLength="48" x="733.0568" y="203.1424">upload</text></g><g id="elem_da"><ellipse cx="598.9971" cy="199.5857" fill="#F1F1F1" rx="78.2871" ry="18.0574" style="stroke:#181818;stroke-width:0.5;"/><text fill="#000000" font-family="sans-serif" font-size="14" lengthAdjust="spacing" textLength="114" x="541.9971" y="202.8767">configure access</text></g><!--entity dp--><g id="elem_dp"><ellipse cx="523" cy="51.4883" fill="#F1F1F1" rx="8" ry="8" style="stroke:#181818;stroke-width:0.5;"/><path d="M523,59.4883 L523,86.4883 M510,67.4883 L536,67.4883 M523,86.4883 L510,101.4883 M523,86.4883 L536,101.4883 " fill="none" style="stroke:#181818;stroke-width:0.5;"/><text fill="#000000" font-family="sans-serif" font-size="14" lengthAdjust="spacing" textLength="88" x="479" y="116.5234">DataProvider</text></g><g id="elem_GMN13"><path d="M6,279.7083 L6,305.0188 A0,0 0 0 0 6,305.0188 L260,305.0188 A0,0 0 0 0 260,305.0188 L260,289.7083 L250,279.7083 L142.77,279.7083 L168.93,217.2383 L134.77,279.7083 L6,279.7083 A0,0 0 0 0 6,279.7083 " fill="#FEFFDD" style="stroke:#181818;stroke-width:0.5;"/><path d="M250,279.7083 L250,289.7083 L260,289.7083 L250,279.7083 " fill="#FEFFDD" style="stroke:#181818;stroke-width:0.5;"/><text fill="#000000" font-family="sans-serif" font-size="13" lengthAdjust="spacing" textLength="233" x="12" y="297.2766">dataset is formated in xAPI standard.</text></g><g id="elem_GMN16"><path d="M295.5,279.7083 L295.5,305.0188 A0,0 0 0 0 295.5,305.0188 L546.5,305.0188 A0,0 0 0 0 546.5,305.0188 L546.5,289.7083 L536.5,279.7083 L419.05,279.7083 L385.54,219.8383 L411.05,279.7083 L295.5,279.7083 A0,0 0 0 0 295.5,279.7083 " fill="#FEFFDD" style="stroke:#181818;stroke-width:0.5;"/><path d="M536.5,279.7083 L536.5,289.7083 L546.5,289.7083 L536.5,279.7083 " fill="#FEFFDD" style="stroke:#181818;stroke-width:0.5;"/><text fill="#000000" font-family="sans-serif" font-size="13" lengthAdjust="spacing" textLength="230" x="301.5" y="297.2766">preferably, xAPI Profile standard link</text></g><g id="elem_n1"><path d="M602,68.5783 L602,93.8888 L914,93.8888 L914,78.5783 L904,68.5783 L602,68.5783 " fill="#FEFFDD" style="stroke:#181818;stroke-width:0.5;"/><path d="M904,68.5783 L904,78.5783 L914,78.5783 L904,68.5783 " fill="#FEFFDD" style="stroke:#181818;stroke-width:1.0;"/><text fill="#000000" font-family="sans-serif" font-size="13" lengthAdjust="spacing" textLength="291" x="608" y="86.1466">dedicated utility could be use for this purpose</text></g><!--link dp to pd--><g id="link_dp_pd"><path d="M478.51,86.6383 C426.75,92.9083 339.51,107.0883 270,136.4783 C242.46,148.1183 219.1122,164.5141 201.1222,178.6941 " fill="none" id="dp-to-pd" style="stroke:#181818;stroke-width:1.0;"/><polygon fill="#181818" points="196.41,182.4083,205.9544,179.9784,200.3368,179.3131,201.0021,173.6955,196.41,182.4083" style="stroke:#181818;stroke-width:1.0;"/></g><!--link dp to wmd--><g id="link_dp_wmd"><path d="M478.9,117.1383 C452.85,137.7583 425.6041,159.3238 404.2841,176.2038 " fill="none" id="dp-to-wmd" style="stroke:#181818;stroke-width:1.0;"/><polygon fill="#181818" points="399.58,179.9283,409.1191,177.4777,403.5001,176.8246,404.1532,171.2056,399.58,179.9283" style="stroke:#181818;stroke-width:1.0;"/></g><!--link dp to u--><g id="link_dp_u"><path d="M567.36,111.6183 C573.13,114.6183 579.1,117.3383 585,119.4783 C631.52,136.3083 650.8,114.2583 695,136.4783 C717.64,147.8583 733.636,165.594 744.726,180.164 " fill="none" id="dp-to-u" style="stroke:#181818;stroke-width:1.0;"/><polygon fill="#181818" points="748.36,184.9383,746.0919,175.3541,745.3317,180.9597,739.7261,180.1995,748.36,184.9383" style="stroke:#181818;stroke-width:1.0;"/></g><!--link dp to da--><g id="link_dp_da"><path d="M547.47,119.6883 C561,140.4183 573.8999,160.1542 584.4699,176.3442 " fill="none" id="dp-to-da" style="stroke:#181818;stroke-width:1.0;"/><polygon fill="#181818" points="587.75,181.3683,586.1793,171.6455,585.0166,177.1816,579.4805,176.0189,587.75,181.3683" style="stroke:#181818;stroke-width:1.0;"/></g><!--link dp to n1--><g id="link_dp_n1"><path d="M567.06,81.2283 C578.62,81.2283 584.18,81.2283 595.74,81.2283 " fill="none" id="dp-to-n1" style="stroke:#181818;stroke-width:1.0;"/><polygon fill="#181818" points="601.74,81.2283,592.74,77.2283,596.74,81.2283,592.74,85.2283,601.74,81.2283" style="stroke:#181818;stroke-width:1.0;"/></g><!--link n1 to u--><g id="link_n1_u"><path d="M758,94.2483 C758,115.9583 758,155.6283 758,178.6683 " fill="none" id="n1-to-u" style="stroke:#181818;stroke-width:1.0;"/><polygon fill="#181818" points="758,184.6683,762,175.6683,758,179.6683,754,175.6683,758,184.6683" style="stroke:#181818;stroke-width:1.0;"/></g><!--SRC=[PO-nQaCn34LtVuN8b49JoDeXKEXIw90b7w1dwQMcVfQnvQQXzDyh-pLGw2I3V7JFrQ2HuPIZ88LqXcTKhApE5VQAwMpBL_4OuSjjS-6CXO7MFtU05JAvxQK4PLXOiM-0nDUnkopallzUEaRKMShIZxKHEVurj_MIvd1kTXozvxhoX1r7hrA6rx78Ho0kOvSTvTtkOFbZzgpnQ7qS37L9p6eILLb0PZE5nviwX0fT19K9GeBFf-CBLBCaBFJm3-rD3BR-CnUSulL-9Kne3jRhHa8CwVsNtX1Jy2EWQOX1h-2bHOA9eLNkyQ1lvf5RoL9vqrkblHlwDjE-Tt4_]--></g></svg>